<?xml version="1.0" standalone="no"?>
<svg xmlns="http://www.w3.org/2000/svg" width="405.52281404916494" height="292.7751491446725" viewBox="0 0 405.52281404916494 292.7751491446725"><g fill="#005f80" color="#005f80" transform="translate(0 0) scale(5.6302914)"><svg width="41.0" height="52.0" x="0.0" y="0.0" viewBox="0 0 41 52"><path fill="currentColor" fill-rule="evenodd" d="M20.07.578C9.017.578 0 9.594 0 20.648c0 5.528 2.254 10.546 5.584 14.324l14.184-14.62 14.487 14.62c3.633-3.778 5.887-8.796 5.887-14.323C40.142 9.594 31.125.578 20.07.578m-6.639 43.446h5.978v-5.978h-5.978v5.978zm7.299 0h5.979v-5.978h-5.98v5.978zm-7.299 7.461h5.978v-5.978h-5.978v5.978zm7.299 0h5.979v-5.978h-5.98v5.978z"></path></svg></g><path fill="#353231" fill-rule="nonzero" d="M13.64 34.40L4.24 34.40L0 0L6.56 0L9.08 23.40L11.32 0L17.88 0L13.64 34.40ZM34.04 34.40L19.84 34.40L19.84 0.04L33.60 0.04L33.60 6.68L26.84 6.68L26.84 13.36L33.32 13.36L33.32 19.84L26.84 19.84L26.84 27.72L34.04 27.72L34.04 34.40ZM36.32 34.40L36.32 0.04L46.88 0.04Q49.40 0.04 50.78 1.18Q52.16 2.32 52.64 4.38Q53.12 6.44 53.12 9.64L53.12 9.64Q53.12 12.56 52.36 14.20Q51.60 15.84 49.72 16.48L49.72 16.48Q51.28 16.80 51.98 18.04Q52.68 19.28 52.68 21.40L52.68 21.40L52.60 34.40L45.88 34.40L45.88 20.96Q45.88 19.52 45.32 19.12Q44.76 18.72 43.28 18.72L43.28 18.72L43.28 34.40L36.32 34.40ZM43.32 12.76L44.96 12.76Q46.40 12.76 46.40 9.64L46.40 9.64Q46.40 8.28 46.28 7.60Q46.16 6.92 45.84 6.66Q45.52 6.40 44.92 6.40L44.92 6.40L43.32 6.40L43.32 12.76ZM69.28 34.40L54.52 34.40L54.52 28.16L62.36 6.36L55.28 6.36L55.28 0.04L69.64 0.04L69.64 6.04L61.60 28.08L69.28 28.08L69.28 34.40ZM86 34.40L71.80 34.40L71.80 0.04L85.56 0.04L85.56 6.68L78.80 6.68L78.80 13.36L85.28 13.36L85.28 19.84L78.80 19.84L78.80 27.72L86 27.72L86 34.40ZM95.12 34.40L88.28 34.40L88.28 0.04L95.08 0.04L95.08 13.80L98.28 0.04L105.20 0.04L101.36 15.76L106 34.40L98.88 34.40L95.12 17.76L95.12 34.40ZM121.36 34.40L107.16 34.40L107.16 0.04L120.92 0.04L120.92 6.68L114.16 6.68L114.16 13.36L120.64 13.36L120.64 19.84L114.16 19.84L114.16 27.72L121.36 27.72L121.36 34.40ZM123.64 34.40L123.64 0.04L134.20 0.04Q136.72 0.04 138.10 1.18Q139.48 2.32 139.96 4.38Q140.44 6.44 140.44 9.64L140.44 9.64Q140.44 12.56 139.68 14.20Q138.92 15.84 137.04 16.48L137.04 16.48Q138.60 16.80 139.30 18.04Q140 19.28 140 21.40L140 21.40L139.92 34.40L133.20 34.40L133.20 20.96Q133.20 19.52 132.64 19.12Q132.08 18.72 130.60 18.72L130.60 18.72L130.60 34.40L123.64 34.40ZM130.64 12.76L132.28 12.76Q133.72 12.76 133.72 9.64L133.72 9.64Q133.72 8.28 133.60 7.60Q133.48 6.92 133.16 6.66Q132.84 6.40 132.24 6.40L132.24 6.40L130.64 6.40L130.64 12.76ZM142.72 34.40L142.72 0.04L152.20 0.04Q155.88 0.04 157.72 2.08Q159.56 4.12 159.60 8.12L159.60 8.12L159.68 24.20Q159.72 29.28 157.92 31.84Q156.12 34.40 151.96 34.40L151.96 34.40L142.72 34.40ZM149.64 28.32L150.84 28.32Q152.72 28.32 152.72 26.48L152.72 26.48L152.72 8.76Q152.72 7.60 152.54 7.02Q152.36 6.44 151.88 6.24Q151.40 6.04 150.40 6.04L150.40 6.04L149.64 6.04L149.64 28.32Z" transform="translate(245.842 0) scale(1)"></path><path fill="#353231" fill-rule="nonzero" d="M10.96 34.36L4.08 34.36L4.08 6.60L0 6.60L0 0L15.04 0L15.04 6.60L10.96 6.60L10.96 34.36ZM31.16 34.36L16.96 34.36L16.96 0L30.72 0L30.72 6.64L23.96 6.64L23.96 13.32L30.44 13.32L30.44 19.80L23.96 19.80L23.96 27.68L31.16 27.68L31.16 34.36Z" transform="translate(245.842 42.4) scale(5.125)"></path><path fill="#353231" fill-rule="nonzero" d="M12.08 34.36L3.68 34.36L0 0L6.72 0L8.64 21.68L10.56 0L16.96 0L18.80 21.68L20.64 0L27.44 0L23.68 34.36L15.44 34.36L13.72 17.80L12.08 34.36ZM43.68 34.36L29.48 34.36L29.48 0L43.24 0L43.24 6.64L36.48 6.64L36.48 13.32L42.96 13.32L42.96 19.80L36.48 19.80L36.48 27.68L43.68 27.68L43.68 34.36ZM45.96 34.36L45.96 0L56.52 0Q59.04 0 60.42 1.14Q61.80 2.28 62.28 4.34Q62.76 6.40 62.76 9.60L62.76 9.60Q62.76 12.52 62 14.16Q61.24 15.80 59.36 16.44L59.36 16.44Q60.92 16.76 61.62 18Q62.32 19.24 62.32 21.36L62.32 21.36L62.24 34.36L55.52 34.36L55.52 20.92Q55.52 19.48 54.96 19.08Q54.40 18.68 52.92 18.68L52.92 18.68L52.92 34.36L45.96 34.36ZM52.96 12.72L54.60 12.72Q56.04 12.72 56.04 9.60L56.04 9.60Q56.04 8.24 55.92 7.56Q55.80 6.88 55.48 6.62Q55.16 6.36 54.56 6.36L54.56 6.36L52.96 6.36L52.96 12.72ZM71.88 34.36L65.04 34.36L65.04 0L71.84 0L71.84 13.76L75.04 0L81.96 0L78.12 15.72L82.76 34.36L75.64 34.36L71.88 17.72L71.88 34.36Z" transform="translate(245.842 226.48) scale(1.93)"></path></svg>